<svg width="24" height="24" viewBox="0 0 24 24" fill="none" xmlns="http://www.w3.org/2000/svg">
<path d="M12.0136 1.77328C17.6388 1.77328 22.1989 6.35126 22.1989 11.9985C22.1989 17.6457 17.6388 22.2236 12.0136 22.2236C6.38851 22.2236 1.82841 17.6457 1.82841 11.9985C1.82841 6.35126 6.38851 1.77328 12.0136 1.77328Z" fill="#DE5833"/>
<path d="M12.0137 23.9927C18.6121 23.9927 23.9612 18.6226 23.9612 11.9983C23.9612 5.37404 18.6121 0.00396729 12.0137 0.00396729C5.41526 0.00396729 0.0661631 5.37404 0.0661631 11.9983C0.0661631 18.6226 5.41526 23.9927 12.0137 23.9927ZM12.0137 22.9931C5.9651 22.9931 1.06179 18.0706 1.06179 11.9983C1.06179 5.92604 5.9651 1.0035 12.0137 1.0035C18.0622 1.0035 22.9655 5.92604 22.9655 11.9983C22.9655 18.0706 18.0622 22.9931 12.0137 22.9931Z" fill="#DE5833"/>
<path d="M7.05177 5.0946C7.0498 4.92265 7.1742 4.82636 7.33948 4.75888C7.26383 4.7713 7.19136 4.79032 7.12611 4.81968C6.9538 4.89808 6.82498 5.19493 6.8262 5.33545C7.66273 5.25055 8.89977 5.30928 9.80436 5.58034C9.87111 5.57093 9.93786 5.56152 10.0056 5.5537C9.10339 5.15154 8.0307 4.99625 7.05177 5.0946Z" fill="#D5D7D8"/>
<path d="M7.22323 4.06119C7.24208 4.0578 7.2612 4.05545 7.28014 4.05225C7.09967 4.07474 7.00452 4.13949 6.86905 4.1618C7.01614 4.17488 7.57348 4.43606 7.92373 4.57968C7.97286 4.56095 8.01711 4.54015 8.0532 4.51559C7.87161 4.48867 7.42039 4.07926 7.22323 4.06119Z" fill="#D5D7D8"/>
<path d="M8.09304 6.0947C8.04289 6.11408 7.99526 6.13432 7.95401 6.15606C6.59042 6.87728 5.98808 8.5619 6.34705 10.5805C6.6747 12.4175 8.01767 18.6939 8.63257 21.646C8.8121 21.7094 8.99379 21.7682 9.17773 21.8216C8.63014 19.1637 7.13548 12.199 6.78673 10.2429C6.4332 8.253 6.77717 6.82514 8.09304 6.0947Z" fill="#D5D7D8"/>
<path d="M13.611 20.5758C13.5885 20.5909 13.5617 20.605 13.5331 20.6187C13.5119 20.7012 13.4795 20.7637 13.4324 20.7951C13.1507 20.9827 12.3553 21.0772 11.9353 20.9827C11.863 20.9666 11.8082 20.94 11.7655 20.9034C11.0484 21.3031 10.0172 21.8352 9.80772 21.7153C9.48053 21.527 9.43309 19.0376 9.48053 18.4266C9.51512 17.9655 11.1287 18.7125 11.9137 19.1043C12.0872 18.9416 12.5124 18.8327 12.8887 18.7957C12.3201 17.4064 11.9008 15.8173 12.1578 14.6905C11.8025 14.4419 11.3316 13.8654 11.4297 13.2637C11.5052 12.8058 12.6841 11.9393 13.5187 11.887C14.3552 11.834 14.616 11.8459 15.3129 11.6784C15.3478 11.67 15.3861 11.6608 15.4262 11.6511C15.8552 10.137 14.8263 7.50298 13.6787 6.35032C13.3045 5.9747 12.7292 5.73827 12.0811 5.61347C11.8318 5.27004 11.4297 4.94166 10.8604 4.63757C9.8034 4.07418 8.49709 3.84481 7.28012 4.05225C7.26119 4.05545 7.24206 4.0578 7.22322 4.06119C7.42037 4.07926 7.87159 4.48867 8.05319 4.51559C8.01709 4.54015 7.97284 4.56095 7.92372 4.57968C7.75328 4.64481 7.52162 4.68434 7.33947 4.75888C7.17419 4.82637 7.04978 4.92265 7.05175 5.0946C8.03069 4.99625 9.10337 5.15154 10.0056 5.55371C9.93784 5.56152 9.87109 5.57093 9.80434 5.58034C9.1645 5.6707 8.5764 5.8371 8.15153 6.06213C8.13156 6.07258 8.11262 6.08387 8.09303 6.0947C6.77716 6.82514 6.43319 8.253 6.78672 10.2429C7.13547 12.199 8.63987 19.2715 9.18747 21.9294C10.0877 22.191 10.9295 22.4 11.9137 22.4C12.7492 22.4 13.7541 22.2141 14.5312 22.0235C14.2583 21.4953 13.9072 20.9111 13.6908 20.4922C13.662 20.5267 13.6392 20.5569 13.611 20.5758ZM14.1616 10.5466C13.8049 10.5466 13.514 10.2554 13.514 9.89526C13.514 9.53686 13.8049 9.24557 14.1616 9.24557C14.5202 9.24557 14.8099 9.53686 14.8099 9.89526C14.8099 10.2554 14.5202 10.5466 14.1616 10.5466ZM14.5517 8.09874C14.5517 8.09874 14.1432 7.86448 13.8262 7.86844C13.1748 7.877 12.9975 8.16594 12.9975 8.16594C12.9975 8.16594 13.1068 7.47719 13.9397 7.61535C14.3913 7.69074 14.5517 8.09874 14.5517 8.09874ZM7.684 8.94552C7.684 8.94552 7.39065 8.28924 8.17244 7.96764C8.95506 7.64594 9.33615 8.1507 9.33615 8.1507C9.33615 8.1507 8.76784 7.89263 8.21528 8.24124C7.66365 8.58947 7.684 8.94552 7.684 8.94552ZM8.36744 10.3443C8.36744 9.92585 8.70447 9.58721 9.12184 9.58721C9.53809 9.58721 9.87559 9.92585 9.87559 10.3443C9.87559 10.7628 9.53809 11.1011 9.12184 11.1011C8.70447 11.1013 8.36744 10.7628 8.36744 10.3443Z" fill="white"/>
<path d="M9.87559 10.3443C9.87559 9.92585 9.53809 9.58722 9.12184 9.58722C8.70446 9.58722 8.36743 9.92585 8.36743 10.3443C8.36743 10.7628 8.70446 11.1013 9.12184 11.1011C9.53809 11.1011 9.87559 10.7628 9.87559 10.3443ZM9.45578 10.2887C9.34872 10.289 9.26068 10.2006 9.26068 10.092C9.26068 9.98308 9.34843 9.89545 9.45578 9.89545C9.56397 9.89545 9.65172 9.98308 9.65172 10.092C9.65172 10.2006 9.56397 10.2887 9.45578 10.2887Z" fill="#2D4F8E"/>
<path d="M9.4558 9.89545C9.34846 9.89545 9.26071 9.98307 9.26071 10.092C9.26071 10.2006 9.34874 10.289 9.4558 10.2887C9.56399 10.2887 9.65174 10.2006 9.65174 10.092C9.65174 9.98307 9.56399 9.89545 9.4558 9.89545Z" fill="white"/>
<path d="M14.1616 9.24557C13.805 9.24557 13.514 9.53687 13.514 9.89527C13.514 10.2554 13.805 10.5466 14.1616 10.5466C14.5202 10.5466 14.81 10.2554 14.81 9.89527C14.81 9.53687 14.5202 9.24557 14.1616 9.24557ZM14.4491 9.84736C14.3577 9.84736 14.2822 9.77273 14.2822 9.67899C14.2822 9.58647 14.3577 9.51052 14.4491 9.51052C14.5445 9.51052 14.6176 9.58647 14.6176 9.67899C14.6176 9.77273 14.5445 9.84736 14.4491 9.84736Z" fill="#2D4F8E"/>
<path d="M14.4491 9.51053C14.3577 9.51053 14.2823 9.58648 14.2823 9.679C14.2823 9.77274 14.3577 9.84738 14.4491 9.84738C14.5445 9.84738 14.6176 9.77274 14.6176 9.679C14.6176 9.58648 14.5445 9.51053 14.4491 9.51053Z" fill="white"/>
<path d="M9.33615 8.15069C9.33615 8.15069 8.95506 7.64594 8.17244 7.96763C7.39065 8.28923 7.684 8.94551 7.684 8.94551C7.684 8.94551 7.66365 8.58946 8.21528 8.24123C8.76784 7.89262 9.33615 8.15069 9.33615 8.15069Z" fill="url(#paint0_linear)"/>
<path d="M13.9398 7.61536C13.1068 7.4772 12.9975 8.16595 12.9975 8.16595C12.9975 8.16595 13.1749 7.87701 13.8262 7.86845C14.1432 7.86449 14.5517 8.09875 14.5517 8.09875C14.5517 8.09875 14.3914 7.69075 13.9398 7.61536Z" fill="url(#paint1_linear)"/>
<path d="M13.5187 11.887C12.6841 11.9393 11.5053 12.8058 11.4297 13.2638C11.3316 13.8655 11.8025 14.4419 12.1579 14.6905C12.1588 14.6911 12.1598 14.692 12.1608 14.6927C12.516 14.9407 14.8812 15.7418 16.0547 15.7196C17.2294 15.6966 19.1588 14.9743 18.9469 14.3956C18.736 13.8167 16.8199 14.9064 14.8213 14.7204C13.3412 14.5823 13.0799 13.9167 13.4076 13.4304C13.8199 12.8193 14.5707 13.5464 15.8091 13.1744C17.0494 12.8033 18.784 12.1392 19.4276 11.7776C20.9157 10.9448 18.8049 10.5994 18.3064 10.8304C17.8338 11.0496 16.1888 11.4664 15.4263 11.6512C15.3861 11.6608 15.3478 11.6701 15.3129 11.6784C14.616 11.846 14.3553 11.834 13.5187 11.887Z" fill="#FDD209"/>
<path d="M11.6546 19.4796C11.6546 19.3929 11.7241 19.3162 11.8343 19.2507C11.8374 19.1981 11.8659 19.1492 11.9137 19.1043C11.1288 18.7125 9.51515 17.9655 9.48056 18.4267C9.43312 19.0376 9.48056 21.527 9.80775 21.7153C10.0172 21.8352 11.0484 21.3031 11.7655 20.9034C11.5586 20.7263 11.6546 20.2966 11.6546 19.4796Z" fill="#65BC46"/>
<path d="M13.6805 20.4881C13.6838 20.4894 13.6875 20.4908 13.6909 20.4922C14.3334 20.7411 15.6126 21.2097 15.8903 21.1074C16.2649 20.9637 16.1711 17.9589 15.7507 17.8632C15.414 17.7881 14.1248 18.7001 13.6176 19.0715C13.7074 19.4519 13.8159 20.2052 13.6805 20.4881Z" fill="#65BC46"/>
<path d="M12.1138 20.7634C11.6924 20.6696 11.8332 20.2464 11.8332 19.2602C11.8332 19.257 11.8341 19.2539 11.8343 19.2507C11.7241 19.3161 11.6546 19.3928 11.6546 19.4795C11.6546 20.2966 11.5586 20.7263 11.7655 20.9033C11.8083 20.94 11.863 20.9666 11.9353 20.9827C12.3553 21.0772 13.1508 20.9827 13.4324 20.7951C13.4795 20.7637 13.5119 20.7012 13.5331 20.6187C13.2034 20.7772 12.4996 20.8515 12.1138 20.7634Z" fill="#43A244"/>
<path d="M11.9137 19.1043C11.8659 19.1492 11.8374 19.1981 11.8343 19.2507C11.8342 19.2539 11.8332 19.2571 11.8332 19.2603C11.8332 20.2464 11.6924 20.6697 12.1138 20.7634C12.4996 20.8515 13.2035 20.7772 13.5331 20.6187C13.5617 20.605 13.5885 20.5909 13.611 20.5758C13.6392 20.5569 13.662 20.5267 13.6805 20.4881C13.8159 20.2052 13.7074 19.4519 13.6176 19.0715C13.5979 18.9879 13.5791 18.922 13.564 18.8834C13.5253 18.7872 13.2271 18.7625 12.8887 18.7957C12.5124 18.8327 12.0873 18.9416 11.9137 19.1043Z" fill="#65BC46"/>
<defs>
<linearGradient id="paint0_linear" x1="8.84147" y1="8.94551" x2="7.63008" y2="8.94551" gradientUnits="userSpaceOnUse">
<stop stop-color="#394A9F"/>
<stop offset="1" stop-color="#6176B9"/>
</linearGradient>
<linearGradient id="paint1_linear" x1="14.101" y1="8.16595" x2="12.9975" y2="8.16595" gradientUnits="userSpaceOnUse">
<stop stop-color="#394A9F"/>
<stop offset="1" stop-color="#6176B9"/>
</linearGradient>
</defs>
</svg>
