<svg width="20" height="20" viewBox="0 0 20 20" fill="none" xmlns="http://www.w3.org/2000/svg">
<path d="M10.0113 1.47772C14.699 1.47772 18.4991 5.2927 18.4991 9.99874C18.4991 14.7047 14.699 18.5197 10.0113 18.5197C5.32376 18.5197 1.52368 14.7047 1.52368 9.99874C1.52368 5.2927 5.32376 1.47772 10.0113 1.47772Z" fill="#DE5833"/>
<path d="M10.0114 19.9939C15.5101 19.9939 19.9676 15.5188 19.9676 9.99859C19.9676 4.47835 15.5101 0.0032959 10.0114 0.0032959C4.51271 0.0032959 0.0551357 4.47835 0.0551357 9.99859C0.0551357 15.5188 4.51271 19.9939 10.0114 19.9939ZM10.0114 19.1609C4.97092 19.1609 0.884823 15.0588 0.884823 9.99859C0.884823 4.93836 4.97092 0.836237 10.0114 0.836237C15.0519 0.836237 19.1379 4.93836 19.1379 9.99859C19.1379 15.0588 15.0519 19.1609 10.0114 19.1609Z" fill="#DE5833"/>
<path d="M5.87647 4.24549C5.87483 4.1022 5.9785 4.02196 6.11624 3.96573C6.05319 3.97608 5.9928 3.99192 5.93843 4.0164C5.79483 4.08173 5.68749 4.3291 5.6885 4.4462C6.38561 4.37545 7.41647 4.4244 8.1703 4.65028C8.22593 4.64243 8.28155 4.63459 8.33804 4.62808C7.58616 4.29294 6.69225 4.16353 5.87647 4.24549Z" fill="#D5D7D8"/>
<path d="M6.01936 3.38431C6.03507 3.38149 6.051 3.37953 6.06679 3.37686C5.91639 3.39561 5.8371 3.44957 5.72421 3.46816C5.84679 3.47906 6.31124 3.6967 6.60311 3.81639C6.64405 3.80078 6.68093 3.78345 6.711 3.76298C6.55968 3.74055 6.18366 3.39937 6.01936 3.38431Z" fill="#D5D7D8"/>
<path d="M6.7442 5.07892C6.70241 5.09508 6.66272 5.11194 6.62834 5.13006C5.49202 5.73108 4.99006 7.13492 5.28921 8.81711C5.56225 10.3479 6.68139 15.5783 7.19381 18.0384C7.34342 18.0912 7.49483 18.1402 7.64811 18.1846C7.19178 15.9697 5.94624 10.1658 5.65561 8.53578C5.361 6.87751 5.64764 5.68762 6.7442 5.07892Z" fill="#D5D7D8"/>
<path d="M11.3425 17.1465C11.3237 17.1591 11.3014 17.1708 11.2775 17.1823C11.2599 17.251 11.2329 17.3031 11.1936 17.3293C10.959 17.4856 10.2961 17.5643 9.94607 17.4856C9.88583 17.4722 9.84021 17.45 9.80458 17.4195C9.207 17.7526 8.34763 18.196 8.1731 18.0961C7.90044 17.9392 7.86091 15.8646 7.90044 15.3556C7.92927 14.9712 9.27396 15.5937 9.9281 15.9203C10.0727 15.7846 10.427 15.6939 10.7406 15.6631C10.2668 14.5054 9.91732 13.1811 10.1315 12.2421C9.83544 12.0349 9.44302 11.5545 9.52474 11.0531C9.58771 10.6715 10.57 9.94943 11.2656 9.90583C11.9627 9.86167 12.18 9.87163 12.7608 9.73202C12.7898 9.72504 12.8218 9.71735 12.8552 9.70928C13.2127 8.44755 12.3553 6.25249 11.3989 5.29194C11.0871 4.97892 10.6077 4.7819 10.0676 4.6779C9.85982 4.39171 9.52474 4.11806 9.05036 3.86465C8.1695 3.39516 7.08091 3.20402 6.06677 3.37688C6.05099 3.37955 6.03505 3.38151 6.01935 3.38434C6.18365 3.39939 6.55966 3.74057 6.71099 3.763C6.68091 3.78347 6.64404 3.80081 6.6031 3.81641C6.46107 3.87069 6.26802 3.90363 6.11622 3.96575C5.97849 4.02198 5.87482 4.10222 5.87646 4.24551C6.69224 4.16355 7.58615 4.29296 8.33802 4.6281C8.28154 4.63461 8.22591 4.64245 8.17029 4.6503C7.63708 4.72559 7.14701 4.86426 6.79294 5.05179C6.7763 5.06049 6.76052 5.0699 6.74419 5.07892C5.64763 5.68763 5.36099 6.87751 5.6556 8.53579C5.94622 10.1658 7.1999 16.0596 7.65622 18.2745C8.40646 18.4925 9.10794 18.6667 9.9281 18.6667C10.6243 18.6667 11.4618 18.5118 12.1093 18.353C11.8819 17.9127 11.5893 17.4259 11.409 17.0768C11.385 17.1056 11.366 17.1308 11.3425 17.1465ZM11.8013 8.78881C11.5041 8.78881 11.2617 8.54614 11.2617 8.24606C11.2617 7.94739 11.5041 7.70465 11.8013 7.70465C12.1001 7.70465 12.3416 7.94739 12.3416 8.24606C12.3416 8.54614 12.1001 8.78881 11.8013 8.78881ZM12.1264 6.74896C12.1264 6.74896 11.786 6.55375 11.5218 6.55704C10.979 6.56418 10.8312 6.80496 10.8312 6.80496C10.8312 6.80496 10.9223 6.231 11.6165 6.34614C11.9928 6.40896 12.1264 6.74896 12.1264 6.74896ZM6.40333 7.45461C6.40333 7.45461 6.15888 6.90771 6.81036 6.63971C7.46255 6.37163 7.78013 6.79226 7.78013 6.79226C7.78013 6.79226 7.30654 6.5772 6.84607 6.86771C6.38638 7.1579 6.40333 7.45461 6.40333 7.45461ZM6.97286 8.62026C6.97286 8.27155 7.25372 7.98935 7.60154 7.98935C7.94841 7.98935 8.22966 8.27155 8.22966 8.62026C8.22966 8.96904 7.94841 9.25092 7.60154 9.25092C7.25372 9.25108 6.97286 8.96904 6.97286 8.62026Z" fill="white"/>
<path d="M8.22966 8.62025C8.22966 8.27155 7.94841 7.98935 7.60153 7.98935C7.25372 7.98935 6.97286 8.27155 6.97286 8.62025C6.97286 8.96904 7.25372 9.25108 7.60153 9.25092C7.94841 9.25092 8.22966 8.96904 8.22966 8.62025ZM7.87982 8.5739C7.7906 8.57413 7.71724 8.50049 7.71724 8.40998C7.71724 8.31923 7.79036 8.24621 7.87982 8.24621C7.96997 8.24621 8.0431 8.31923 8.0431 8.40998C8.0431 8.50049 7.96997 8.5739 7.87982 8.5739Z" fill="#2D4F8E"/>
<path d="M7.87984 8.24622C7.79039 8.24622 7.71726 8.31924 7.71726 8.40998C7.71726 8.50049 7.79062 8.57414 7.87984 8.5739C7.96999 8.5739 8.04312 8.50049 8.04312 8.40998C8.04312 8.31924 7.96999 8.24622 7.87984 8.24622Z" fill="white"/>
<path d="M11.8013 7.70465C11.5041 7.70465 11.2617 7.9474 11.2617 8.24606C11.2617 8.54614 11.5041 8.78881 11.8013 8.78881C12.1001 8.78881 12.3416 8.54614 12.3416 8.24606C12.3416 7.9474 12.1001 7.70465 11.8013 7.70465ZM12.0409 8.20614C11.9648 8.20614 11.9019 8.14395 11.9019 8.06583C11.9019 7.98873 11.9648 7.92544 12.0409 7.92544C12.1204 7.92544 12.1813 7.98873 12.1813 8.06583C12.1813 8.14395 12.1204 8.20614 12.0409 8.20614Z" fill="#2D4F8E"/>
<path d="M12.0409 7.92545C11.9648 7.92545 11.9019 7.98874 11.9019 8.06584C11.9019 8.14396 11.9648 8.20615 12.0409 8.20615C12.1204 8.20615 12.1813 8.14396 12.1813 8.06584C12.1813 7.98874 12.1204 7.92545 12.0409 7.92545Z" fill="white"/>
<path d="M7.78013 6.79225C7.78013 6.79225 7.46255 6.37162 6.81036 6.6397C6.15888 6.9077 6.40333 7.4546 6.40333 7.4546C6.40333 7.4546 6.38638 7.1579 6.84607 6.8677C7.30654 6.57719 7.78013 6.79225 7.78013 6.79225Z" fill="url(#paint0_linear)"/>
<path d="M11.6165 6.34617C10.9223 6.23103 10.8312 6.80499 10.8312 6.80499C10.8312 6.80499 10.9791 6.56421 11.5219 6.55707C11.786 6.55378 12.1264 6.74899 12.1264 6.74899C12.1264 6.74899 11.9928 6.40899 11.6165 6.34617Z" fill="url(#paint1_linear)"/>
<path d="M11.2656 9.90585C10.5701 9.94946 9.58772 10.6715 9.52475 11.0531C9.44303 11.5546 9.83545 12.0349 10.1315 12.2421C10.1323 12.2426 10.1332 12.2433 10.134 12.2439C10.43 12.4506 12.401 13.1182 13.3789 13.0997C14.3579 13.0805 15.9657 12.4786 15.7891 11.9964C15.6133 11.5139 14.0165 12.422 12.3511 12.267C11.1176 12.152 10.8999 11.5972 11.173 11.192C11.5165 10.6828 12.1423 11.2887 13.1743 10.9786C14.2079 10.6695 15.6533 10.116 16.1897 9.81472C17.4297 9.12068 15.6708 8.83283 15.2553 9.02538C14.8615 9.20805 13.4907 9.55534 12.8552 9.7093C12.8218 9.71738 12.7898 9.72507 12.7608 9.73205C12.18 9.87166 11.9627 9.8617 11.2656 9.90585Z" fill="#FDD209"/>
<path d="M9.71219 16.233C9.71219 16.1607 9.77008 16.0968 9.86195 16.0423C9.86453 15.9984 9.88828 15.9577 9.92812 15.9202C9.27398 15.5937 7.92929 14.9712 7.90047 15.3555C7.86094 15.8646 7.90047 17.9391 8.17312 18.0961C8.34765 18.196 9.20703 17.7526 9.80461 17.4195C9.63219 17.2719 9.71219 16.9138 9.71219 16.233Z" fill="#65BC46"/>
<path d="M11.4004 17.0734C11.4032 17.0745 11.4062 17.0757 11.4091 17.0768C11.9445 17.2842 13.0105 17.6748 13.2419 17.5895C13.5541 17.4697 13.4759 14.9657 13.1256 14.886C12.845 14.8235 11.7707 15.5834 11.348 15.8929C11.4228 16.2099 11.5133 16.8377 11.4004 17.0734Z" fill="#65BC46"/>
<path d="M10.0948 17.3028C9.74366 17.2247 9.861 16.872 9.861 16.0502C9.861 16.0475 9.86178 16.0449 9.86194 16.0423C9.77007 16.0968 9.71217 16.1607 9.71217 16.2329C9.71217 16.9138 9.63218 17.2719 9.8046 17.4194C9.84022 17.45 9.88585 17.4721 9.94608 17.4856C10.2961 17.5643 10.959 17.4856 11.1937 17.3292C11.233 17.303 11.2599 17.251 11.2776 17.1823C11.0029 17.3143 10.4163 17.3762 10.0948 17.3028Z" fill="#43A244"/>
<path d="M9.92812 15.9202C9.88828 15.9576 9.86453 15.9984 9.86195 16.0423C9.86179 16.0449 9.86101 16.0475 9.86101 16.0502C9.86101 16.872 9.74367 17.2247 10.0948 17.3028C10.4163 17.3762 11.0029 17.3143 11.2776 17.1823C11.3014 17.1708 11.3237 17.159 11.3425 17.1465C11.366 17.1307 11.385 17.1056 11.4004 17.0734C11.5133 16.8376 11.4228 16.2099 11.348 15.8929C11.3316 15.8232 11.3159 15.7683 11.3034 15.7361C11.2711 15.656 11.0226 15.6354 10.7406 15.663C10.427 15.6939 10.0727 15.7846 9.92812 15.9202Z" fill="#65BC46"/>
<defs>
<linearGradient id="paint0_linear" x1="7.36789" y1="7.4546" x2="6.3584" y2="7.4546" gradientUnits="userSpaceOnUse">
<stop stop-color="#394A9F"/>
<stop offset="1" stop-color="#6176B9"/>
</linearGradient>
<linearGradient id="paint1_linear" x1="11.7509" y1="6.80499" x2="10.8312" y2="6.80499" gradientUnits="userSpaceOnUse">
<stop stop-color="#394A9F"/>
<stop offset="1" stop-color="#6176B9"/>
</linearGradient>
</defs>
</svg>
