<svg width="24" height="24" viewBox="0 0 24 24" fill="none" xmlns="http://www.w3.org/2000/svg">
<rect width="24" height="24" rx="12" fill="white"/>
<g clip-path="url(#clip0)">
<path d="M20.5794 12.1684C20.5794 11.431 20.5196 10.8928 20.3901 10.3347H11.9691V13.6632H16.912C16.8124 14.4904 16.2743 15.7361 15.0784 16.5732L15.0616 16.6846L17.7241 18.7473L17.9086 18.7657C19.6027 17.2011 20.5794 14.899 20.5794 12.1684Z" fill="#4285F4"/>
<path d="M11.9691 20.9382C14.3907 20.9382 16.4237 20.1409 17.9086 18.7657L15.0784 16.5732C14.321 17.1014 13.3045 17.4701 11.9691 17.4701C9.59728 17.4701 7.58423 15.9055 6.86664 13.743L6.76146 13.7519L3.99289 15.8945L3.95668 15.9952C5.43159 18.9251 8.46115 20.9382 11.9691 20.9382Z" fill="#34A853"/>
<path d="M6.86663 13.743C6.67729 13.1849 6.56771 12.5869 6.56771 11.9691C6.56771 11.3512 6.67729 10.7533 6.85667 10.1952L6.85166 10.0763L4.0484 7.89929L3.95668 7.94292C3.3488 9.15874 3 10.5241 3 11.9691C3 13.4141 3.3488 14.7793 3.95668 15.9952L6.86663 13.743Z" fill="#FBBC05"/>
<path d="M11.9691 6.46802C13.6533 6.46802 14.7893 7.19551 15.4371 7.80346L17.9684 5.33196C16.4138 3.88695 14.3907 3 11.9691 3C8.46115 3 5.43159 5.01305 3.95668 7.94292L6.85668 10.1952C7.58423 8.03265 9.59728 6.46802 11.9691 6.46802Z" fill="#EB4335"/>
</g>
<defs>
<clipPath id="clip0">
<rect width="17.5878" height="18" fill="white" transform="translate(3 3)"/>
</clipPath>
</defs>
</svg>
