<svg width="20" height="20" viewBox="0 0 20 20" fill="none" xmlns="http://www.w3.org/2000/svg">
<rect width="20" height="20" rx="10" fill="white"/>
<g clip-path="url(#clip0)">
<path d="M17.1495 10.1404C17.1495 9.52582 17.0996 9.07736 16.9917 8.6123H9.97425V11.386H14.0933C14.0103 12.0754 13.5619 13.1135 12.5653 13.811L12.5513 13.9039L14.7701 15.6227L14.9238 15.6381C16.3356 14.3342 17.1495 12.4158 17.1495 10.1404Z" fill="#4285F4"/>
<path d="M9.97424 17.4485C11.9923 17.4485 13.6864 16.7841 14.9238 15.6381L12.5653 13.811C11.9341 14.2511 11.087 14.5584 9.97424 14.5584C7.99773 14.5584 6.32019 13.2546 5.7222 11.4525L5.63454 11.4599L3.32741 13.2454L3.29723 13.3293C4.52632 15.7709 7.05096 17.4485 9.97424 17.4485Z" fill="#34A853"/>
<path d="M5.72219 11.4525C5.56441 10.9874 5.47309 10.4891 5.47309 9.97422C5.47309 9.4593 5.56441 8.96103 5.71389 8.49598L5.70971 8.39693L3.37366 6.58273L3.29723 6.61909C2.79067 7.63228 2.5 8.77004 2.5 9.97422C2.5 11.1784 2.79067 12.3161 3.29723 13.3293L5.72219 11.4525Z" fill="#FBBC05"/>
<path d="M9.97424 5.39002C11.3777 5.39002 12.3244 5.99626 12.8643 6.50288L14.9736 4.4433C13.6782 3.23912 11.9923 2.5 9.97424 2.5C7.05096 2.5 4.52632 4.17754 3.29723 6.6191L5.71389 8.49599C6.32019 6.69387 7.99773 5.39002 9.97424 5.39002Z" fill="#EB4335"/>
</g>
<defs>
<clipPath id="clip0">
<rect x="2.5" y="2.5" width="14.6565" height="15" fill="white"/>
</clipPath>
</defs>
</svg>
