<svg width="20" height="20" viewBox="0 0 20 20" fill="none" xmlns="http://www.w3.org/2000/svg">
<path d="M19.9941 0H0.00585938C0.00262333 0 0 0.00262333 0 0.00585938V19.9941C0 19.9974 0.00262333 20 0.00585938 20H19.9941C19.9974 20 20 19.9974 20 19.9941V0.00585938C20 0.00262333 19.9974 0 19.9941 0Z" fill="#5F01D1"/>
<path d="M7.92969 15.7812H5.50781L6.48438 13.4766L3.78906 7.03125H6.25L7.69531 10.7422L9.14062 7.03125H11.5625L7.92969 15.7812ZM13.8281 10H11.1328L13.5547 4.21875H16.25" fill="white"/>
<path d="M11.8359 13.5156C12.6557 13.5156 13.3203 12.851 13.3203 12.0312C13.3203 11.2115 12.6557 10.5469 11.8359 10.5469C11.0161 10.5469 10.3516 11.2115 10.3516 12.0312C10.3516 12.851 11.0161 13.5156 11.8359 13.5156Z" fill="white"/>
</svg>
