<svg width="20" height="20" viewBox="0 0 20 20" fill="none" xmlns="http://www.w3.org/2000/svg">
<path d="M19.6875 10C19.6875 15.3514 15.3499 19.6875 10 19.6875C4.65012 19.6875 0.3125 15.3514 0.3125 10C0.3125 4.65168 4.65012 0.3125 10 0.3125C15.3499 0.3125 19.6875 4.65168 19.6875 10ZM10.26 3.51562C8.13117 3.51562 6.77344 4.41238 5.70727 6.00617C5.56914 6.21266 5.61535 6.49113 5.81332 6.64125L7.16875 7.66898C7.37207 7.82316 7.66176 7.78648 7.81973 7.58609C8.51754 6.70102 8.99602 6.18777 10.0581 6.18777C10.8561 6.18777 11.8432 6.70137 11.8432 7.4752C11.8432 8.0602 11.3603 8.36063 10.5723 8.80238C9.65344 9.3175 8.4375 9.95863 8.4375 11.5625V11.7188C8.4375 11.9776 8.64738 12.1875 8.90625 12.1875H11.0938C11.3526 12.1875 11.5625 11.9776 11.5625 11.7188V11.6667C11.5625 10.5549 14.812 10.5086 14.812 7.5C14.812 5.2343 12.4618 3.51562 10.26 3.51562V3.51562ZM10 13.2031C9.00918 13.2031 8.20312 14.0092 8.20312 15C8.20312 15.9908 9.00918 16.7969 10 16.7969C10.9908 16.7969 11.7969 15.9908 11.7969 15C11.7969 14.0092 10.9908 13.2031 10 13.2031Z" fill="#828282"/>
</svg>