<svg width="15" height="14" viewBox="0 0 15 14" fill="none" xmlns="http://www.w3.org/2000/svg">
<path d="M13.7305 0C13.9492 0 14.0586 0.109375 14.0586 0.328125V5.57812C14.0586 5.79688 13.9492 5.90625 13.7305 5.90625H8.48047C8.26172 5.90625 8.15234 5.79688 8.15234 5.57812V4.8125C8.15234 4.72135 8.17969 4.64844 8.23438 4.59375C8.30729 4.52083 8.38932 4.48438 8.48047 4.48438L11.9531 4.56641C11.5156 3.61849 10.8594 2.86198 9.98438 2.29688C9.10938 1.71354 8.13411 1.42188 7.05859 1.42188C5.58203 1.42188 4.3151 1.95052 3.25781 3.00781C2.21875 4.04688 1.69922 5.30469 1.69922 6.78125C1.69922 8.25781 2.21875 9.52474 3.25781 10.582C4.3151 11.6211 5.58203 12.1406 7.05859 12.1406C8.42578 12.1406 9.61068 11.6849 10.6133 10.7734C10.7773 10.6458 10.9323 10.6549 11.0781 10.8008L11.625 11.3477C11.7891 11.5117 11.7799 11.6667 11.5977 11.8125C10.3034 12.9792 8.79036 13.5625 7.05859 13.5625C5.18099 13.5625 3.57682 12.9062 2.24609 11.5938C0.933594 10.263 0.277344 8.65885 0.277344 6.78125C0.277344 4.92188 0.933594 3.32682 2.24609 1.99609C3.57682 0.665365 5.17188 0 7.03125 0C8.19792 0 9.28255 0.273438 10.2852 0.820312C11.2878 1.36719 12.099 2.10547 12.7188 3.03516L12.6367 0.328125C12.6367 0.236979 12.6641 0.164062 12.7188 0.109375C12.7917 0.0364583 12.8737 0 12.9648 0H13.7305Z" fill="#828282"/>
</svg>
