<svg width="13" height="13" viewBox="0 0 13 13" fill="none" xmlns="http://www.w3.org/2000/svg">
<path d="M6.30273 12.7422C6.13867 12.888 5.98372 12.888 5.83789 12.7422L0.123047 7C-0.0410156 6.85417 -0.0410156 6.70833 0.123047 6.5625L5.83789 0.820312C5.98372 0.674479 6.13867 0.674479 6.30273 0.820312L6.84961 1.36719C6.99544 1.51302 6.99544 1.66797 6.84961 1.83203L2.61133 6.07031H11.9355C12.1543 6.07031 12.2637 6.17969 12.2637 6.39844V7.16406C12.2637 7.38281 12.1543 7.49219 11.9355 7.49219H2.61133L6.84961 11.7305C6.99544 11.8945 6.99544 12.0495 6.84961 12.1953L6.30273 12.7422Z" fill="#828282"/>
</svg>
