<svg width="17" height="13" viewBox="0 0 17 13" fill="none" xmlns="http://www.w3.org/2000/svg">
<path d="M16.1133 6.53516C16.2227 6.6263 16.2773 6.74479 16.2773 6.89062C16.2773 7 16.2409 7.09115 16.168 7.16406L15.8945 7.49219C15.8034 7.60156 15.694 7.65625 15.5664 7.65625C15.457 7.65625 15.3659 7.61979 15.293 7.54688L14.5273 6.94531V12.0312C14.5273 12.2682 14.4362 12.4688 14.2539 12.6328C14.0898 12.8151 13.8893 12.9062 13.6523 12.9062H10.1523C9.91536 12.9062 9.70573 12.8151 9.52344 12.6328C9.35938 12.4688 9.27734 12.2682 9.27734 12.0312V9.1875H7.52734V12.0312C7.52734 12.2682 7.4362 12.4688 7.25391 12.6328C7.08984 12.8151 6.88932 12.9062 6.65234 12.9062H3.15234C2.91536 12.9062 2.70573 12.8151 2.52344 12.6328C2.35938 12.4688 2.27734 12.2682 2.27734 12.0312V6.94531L1.53906 7.54688C1.44792 7.61979 1.34766 7.65625 1.23828 7.65625C1.11068 7.65625 1.0013 7.60156 0.910156 7.49219L0.636719 7.16406C0.563802 7.07292 0.527344 6.98177 0.527344 6.89062C0.527344 6.74479 0.582031 6.6263 0.691406 6.53516L7.41797 1.01172C7.70964 0.77474 8.03776 0.65625 8.40234 0.65625C8.76693 0.65625 9.09505 0.77474 9.38672 1.01172L16.1133 6.53516ZM13.2148 11.5938V5.85156L8.40234 1.91406L3.58984 5.85156V11.5938H6.21484V8.75C6.21484 8.51302 6.29688 8.3125 6.46094 8.14844C6.64323 7.96615 6.85286 7.875 7.08984 7.875H9.71484C9.95182 7.875 10.1523 7.96615 10.3164 8.14844C10.4987 8.3125 10.5898 8.51302 10.5898 8.75V11.5938H13.2148Z" fill="#828282"/>
</svg>
