<svg width="13" height="13" viewBox="0 0 13 13" fill="none" xmlns="http://www.w3.org/2000/svg">
<path d="M6.22461 0.820312C6.38867 0.674479 6.54362 0.674479 6.68945 0.820312L12.4043 6.5625C12.5684 6.70833 12.5684 6.85417 12.4043 7L6.68945 12.7422C6.54362 12.888 6.38867 12.888 6.22461 12.7422L5.67773 12.1953C5.62305 12.1406 5.5957 12.0677 5.5957 11.9766C5.5957 11.8854 5.62305 11.8034 5.67773 11.7305L9.91602 7.49219H0.591797C0.373047 7.49219 0.263672 7.38281 0.263672 7.16406V6.39844C0.263672 6.17969 0.373047 6.07031 0.591797 6.07031H9.91602L5.67773 1.83203C5.5319 1.66797 5.5319 1.51302 5.67773 1.36719L6.22461 0.820312Z" fill="#828282"/>
</svg>
